<mxfile host="ef84d1a5-1bcb-4d00-8699-79ea4ed2d63a" modified="2020-07-28T12:16:33.945Z" agent="5.0 (Macintosh; Intel Mac OS X 10_15_5) AppleWebKit/537.36 (KHTML, like Gecko) Code/1.47.3 Chrome/78.0.3904.130 Electron/7.3.2 Safari/537.36" etag="XjEXzWZE8y5UnEo4Bum5" version="13.1.3">
    <diagram id="6hGFLwfOUW9BJ-s0fimq" name="Page-1">
        <mxGraphModel dx="590" dy="438" grid="1" gridSize="10" guides="1" tooltips="1" connect="1" arrows="1" fold="1" page="1" pageScale="1" pageWidth="827" pageHeight="1169" math="0" shadow="0">
            <root>
                <mxCell id="0"/>
                <mxCell id="1" parent="0"/>
                <mxCell id="2" value="" style="rounded=1;whiteSpace=wrap;html=1;fillColor=#f5f5f5;arcSize=8;strokeColor=#666666;fontColor=#333333;" vertex="1" parent="1">
                    <mxGeometry x="90" y="250" width="560" height="100" as="geometry"/>
                </mxCell>
                <mxCell id="19" value="1" style="edgeStyle=orthogonalEdgeStyle;rounded=0;orthogonalLoop=1;jettySize=auto;html=1;entryX=0.5;entryY=0;entryDx=0;entryDy=0;entryPerimeter=0;endArrow=open;endFill=0;" edge="1" parent="1" source="2" target="14">
                    <mxGeometry relative="1" as="geometry">
                        <mxPoint x="150" y="352" as="sourcePoint"/>
                        <mxPoint x="150" y="432" as="targetPoint"/>
                        <Array as="points">
                            <mxPoint x="150" y="370"/>
                            <mxPoint x="150" y="370"/>
                        </Array>
                    </mxGeometry>
                </mxCell>
                <mxCell id="3" value="Step 1" style="rounded=1;whiteSpace=wrap;html=1;fillColor=#FFFFFF;arcSize=6;" vertex="1" parent="1">
                    <mxGeometry x="110" y="290" width="80" height="40" as="geometry"/>
                </mxCell>
                <mxCell id="4" value="Step 2" style="rounded=1;whiteSpace=wrap;html=1;fillColor=#FFFFFF;arcSize=6;" vertex="1" parent="1">
                    <mxGeometry x="220" y="290" width="80" height="40" as="geometry"/>
                </mxCell>
                <mxCell id="5" value="Step 3" style="rounded=1;whiteSpace=wrap;html=1;fillColor=#FFFFFF;arcSize=6;" vertex="1" parent="1">
                    <mxGeometry x="330" y="290" width="80" height="40" as="geometry"/>
                </mxCell>
                <mxCell id="6" value="Step 4" style="rounded=1;whiteSpace=wrap;html=1;fillColor=#FFFFFF;arcSize=6;" vertex="1" parent="1">
                    <mxGeometry x="440" y="290" width="80" height="40" as="geometry"/>
                </mxCell>
                <mxCell id="7" value="Step 5" style="rounded=1;whiteSpace=wrap;html=1;fillColor=#FFFFFF;arcSize=6;" vertex="1" parent="1">
                    <mxGeometry x="550" y="290" width="80" height="40" as="geometry"/>
                </mxCell>
                <mxCell id="8" value="Event Mediator" style="text;html=1;strokeColor=none;fillColor=none;align=center;verticalAlign=middle;whiteSpace=wrap;rounded=0;fontStyle=1" vertex="1" parent="1">
                    <mxGeometry x="220" y="260" width="300" height="20" as="geometry"/>
                </mxCell>
                <mxCell id="9" value="Event&lt;br&gt;Processor 1" style="rounded=1;whiteSpace=wrap;html=1;fillColor=#FFFFFF;arcSize=6;" vertex="1" parent="1">
                    <mxGeometry x="110" y="500" width="80" height="70" as="geometry"/>
                </mxCell>
                <mxCell id="10" value="Event&lt;br&gt;Processor 2" style="rounded=1;whiteSpace=wrap;html=1;fillColor=#FFFFFF;arcSize=6;" vertex="1" parent="1">
                    <mxGeometry x="220" y="500" width="80" height="70" as="geometry"/>
                </mxCell>
                <mxCell id="11" value="Event&lt;br&gt;Processor 3" style="rounded=1;whiteSpace=wrap;html=1;fillColor=#FFFFFF;arcSize=6;" vertex="1" parent="1">
                    <mxGeometry x="330" y="500" width="80" height="70" as="geometry"/>
                </mxCell>
                <mxCell id="12" value="Event&lt;br&gt;Processor 4" style="rounded=1;whiteSpace=wrap;html=1;fillColor=#FFFFFF;arcSize=6;" vertex="1" parent="1">
                    <mxGeometry x="440" y="500" width="80" height="70" as="geometry"/>
                </mxCell>
                <mxCell id="13" value="Event&lt;br&gt;Processor 5" style="rounded=1;whiteSpace=wrap;html=1;fillColor=#FFFFFF;arcSize=6;" vertex="1" parent="1">
                    <mxGeometry x="550" y="500" width="80" height="70" as="geometry"/>
                </mxCell>
                <mxCell id="20" value="2" style="edgeStyle=orthogonalEdgeStyle;rounded=0;orthogonalLoop=1;jettySize=auto;html=1;endArrow=open;endFill=0;startArrow=open;startFill=0;" edge="1" parent="1" source="14" target="9">
                    <mxGeometry relative="1" as="geometry"/>
                </mxCell>
                <mxCell id="21" value="3" style="rounded=0;orthogonalLoop=1;jettySize=auto;html=1;entryX=0.304;entryY=1.01;entryDx=0;entryDy=0;entryPerimeter=0;startArrow=none;startFill=0;endArrow=open;endFill=0;strokeColor=#B3B3B3;dashed=1;" edge="1" parent="1" source="14" target="2">
                    <mxGeometry relative="1" as="geometry"/>
                </mxCell>
                <mxCell id="14" value="" style="strokeWidth=1;html=1;shape=mxgraph.flowchart.direct_data;whiteSpace=wrap;fillColor=#f5f5f5;strokeColor=#666666;fontColor=#333333;" vertex="1" parent="1">
                    <mxGeometry x="120" y="440" width="60" height="20" as="geometry"/>
                </mxCell>
                <mxCell id="23" value="5" style="edgeStyle=none;rounded=0;orthogonalLoop=1;jettySize=auto;html=1;entryX=0.5;entryY=0;entryDx=0;entryDy=0;dashed=1;startArrow=open;startFill=0;endArrow=open;endFill=0;strokeColor=#B3B3B3;" edge="1" parent="1" source="15" target="10">
                    <mxGeometry relative="1" as="geometry"/>
                </mxCell>
                <mxCell id="15" value="" style="strokeWidth=1;html=1;shape=mxgraph.flowchart.direct_data;whiteSpace=wrap;fillColor=#f5f5f5;strokeColor=#666666;fontColor=#333333;" vertex="1" parent="1">
                    <mxGeometry x="230" y="440" width="60" height="20" as="geometry"/>
                </mxCell>
                <mxCell id="28" value="8" style="edgeStyle=none;rounded=0;orthogonalLoop=1;jettySize=auto;html=1;entryX=0.5;entryY=0;entryDx=0;entryDy=0;dashed=1;startArrow=open;startFill=0;endArrow=open;endFill=0;strokeColor=#B3B3B3;" edge="1" parent="1" source="16" target="11">
                    <mxGeometry relative="1" as="geometry"/>
                </mxCell>
                <mxCell id="16" value="" style="strokeWidth=1;html=1;shape=mxgraph.flowchart.direct_data;whiteSpace=wrap;fillColor=#f5f5f5;strokeColor=#666666;fontColor=#333333;" vertex="1" parent="1">
                    <mxGeometry x="340" y="440" width="60" height="20" as="geometry"/>
                </mxCell>
                <mxCell id="32" value="11" style="edgeStyle=none;rounded=0;orthogonalLoop=1;jettySize=auto;html=1;dashed=1;startArrow=open;startFill=0;endArrow=open;endFill=0;strokeColor=#B3B3B3;" edge="1" parent="1" source="17" target="12">
                    <mxGeometry relative="1" as="geometry"/>
                </mxCell>
                <mxCell id="17" value="" style="strokeWidth=1;html=1;shape=mxgraph.flowchart.direct_data;whiteSpace=wrap;fillColor=#f5f5f5;strokeColor=#666666;fontColor=#333333;" vertex="1" parent="1">
                    <mxGeometry x="450" y="440" width="60" height="20" as="geometry"/>
                </mxCell>
                <mxCell id="35" value="14" style="edgeStyle=none;rounded=0;orthogonalLoop=1;jettySize=auto;html=1;dashed=1;startArrow=open;startFill=0;endArrow=open;endFill=0;strokeColor=#B3B3B3;" edge="1" parent="1" source="18" target="13">
                    <mxGeometry relative="1" as="geometry"/>
                </mxCell>
                <mxCell id="18" value="" style="strokeWidth=1;html=1;shape=mxgraph.flowchart.direct_data;whiteSpace=wrap;fillColor=#f5f5f5;strokeColor=#666666;fontColor=#333333;" vertex="1" parent="1">
                    <mxGeometry x="560" y="440" width="60" height="20" as="geometry"/>
                </mxCell>
                <mxCell id="22" value="4" style="edgeStyle=orthogonalEdgeStyle;rounded=0;orthogonalLoop=1;jettySize=auto;html=1;entryX=0.5;entryY=0;entryDx=0;entryDy=0;entryPerimeter=0;endArrow=open;endFill=0;strokeColor=#B3B3B3;dashed=1;" edge="1" parent="1">
                    <mxGeometry relative="1" as="geometry">
                        <mxPoint x="259.71" y="350" as="sourcePoint"/>
                        <mxPoint x="259.71" y="440" as="targetPoint"/>
                        <Array as="points">
                            <mxPoint x="259.71" y="370"/>
                            <mxPoint x="259.71" y="370"/>
                        </Array>
                    </mxGeometry>
                </mxCell>
                <mxCell id="26" value="6" style="rounded=0;orthogonalLoop=1;jettySize=auto;html=1;entryX=0.495;entryY=1.009;entryDx=0;entryDy=0;entryPerimeter=0;startArrow=none;startFill=0;endArrow=open;endFill=0;strokeColor=#B3B3B3;dashed=1;" edge="1" parent="1" target="2">
                    <mxGeometry relative="1" as="geometry">
                        <mxPoint x="259.9953535353535" y="440" as="sourcePoint"/>
                        <mxPoint x="359.1" y="350.99999999999994" as="targetPoint"/>
                    </mxGeometry>
                </mxCell>
                <mxCell id="27" value="7" style="edgeStyle=orthogonalEdgeStyle;rounded=0;orthogonalLoop=1;jettySize=auto;html=1;entryX=0.5;entryY=0;entryDx=0;entryDy=0;entryPerimeter=0;endArrow=open;endFill=0;strokeColor=#B3B3B3;dashed=1;" edge="1" parent="1">
                    <mxGeometry relative="1" as="geometry">
                        <mxPoint x="369.76000000000005" y="350" as="sourcePoint"/>
                        <mxPoint x="369.76000000000005" y="440" as="targetPoint"/>
                        <Array as="points">
                            <mxPoint x="369.76" y="370"/>
                            <mxPoint x="369.76" y="370"/>
                        </Array>
                    </mxGeometry>
                </mxCell>
                <mxCell id="30" value="9" style="rounded=0;orthogonalLoop=1;jettySize=auto;html=1;entryX=0.495;entryY=1.009;entryDx=0;entryDy=0;entryPerimeter=0;startArrow=none;startFill=0;endArrow=open;endFill=0;strokeColor=#B3B3B3;dashed=1;" edge="1" parent="1">
                    <mxGeometry relative="1" as="geometry">
                        <mxPoint x="369.9953535353535" y="440" as="sourcePoint"/>
                        <mxPoint x="477.20000000000005" y="350.90000000000003" as="targetPoint"/>
                    </mxGeometry>
                </mxCell>
                <mxCell id="31" value="10" style="edgeStyle=orthogonalEdgeStyle;rounded=0;orthogonalLoop=1;jettySize=auto;html=1;entryX=0.5;entryY=0;entryDx=0;entryDy=0;entryPerimeter=0;endArrow=open;endFill=0;strokeColor=#B3B3B3;dashed=1;" edge="1" parent="1">
                    <mxGeometry relative="1" as="geometry">
                        <mxPoint x="479.76" y="350" as="sourcePoint"/>
                        <mxPoint x="479.76" y="440" as="targetPoint"/>
                        <Array as="points">
                            <mxPoint x="479.76" y="370"/>
                            <mxPoint x="479.76" y="370"/>
                        </Array>
                    </mxGeometry>
                </mxCell>
                <mxCell id="33" value="12" style="rounded=0;orthogonalLoop=1;jettySize=auto;html=1;entryX=0.495;entryY=1.009;entryDx=0;entryDy=0;entryPerimeter=0;startArrow=none;startFill=0;endArrow=open;endFill=0;strokeColor=#B3B3B3;dashed=1;" edge="1" parent="1">
                    <mxGeometry relative="1" as="geometry">
                        <mxPoint x="479.9953535353535" y="440" as="sourcePoint"/>
                        <mxPoint x="587.2" y="350.90000000000003" as="targetPoint"/>
                    </mxGeometry>
                </mxCell>
                <mxCell id="34" value="13" style="edgeStyle=orthogonalEdgeStyle;rounded=0;orthogonalLoop=1;jettySize=auto;html=1;entryX=0.5;entryY=0;entryDx=0;entryDy=0;entryPerimeter=0;endArrow=open;endFill=0;strokeColor=#B3B3B3;dashed=1;" edge="1" parent="1">
                    <mxGeometry relative="1" as="geometry">
                        <mxPoint x="589.76" y="350" as="sourcePoint"/>
                        <mxPoint x="589.76" y="440" as="targetPoint"/>
                        <Array as="points">
                            <mxPoint x="589.76" y="370"/>
                            <mxPoint x="589.76" y="370"/>
                        </Array>
                    </mxGeometry>
                </mxCell>
                <mxCell id="38" style="edgeStyle=orthogonalEdgeStyle;rounded=0;orthogonalLoop=1;jettySize=auto;html=1;startArrow=none;startFill=0;endArrow=open;endFill=0;strokeColor=#000000;exitX=0.5;exitY=1;exitDx=0;exitDy=0;exitPerimeter=0;" edge="1" parent="1" source="37">
                    <mxGeometry relative="1" as="geometry">
                        <mxPoint x="150" y="250" as="targetPoint"/>
                    </mxGeometry>
                </mxCell>
                <mxCell id="37" value="" style="strokeWidth=1;html=1;shape=mxgraph.flowchart.direct_data;whiteSpace=wrap;fillColor=#f5f5f5;strokeColor=#666666;fontColor=#333333;" vertex="1" parent="1">
                    <mxGeometry x="340" y="180" width="60" height="20" as="geometry"/>
                </mxCell>
                <mxCell id="41" style="edgeStyle=orthogonalEdgeStyle;rounded=0;orthogonalLoop=1;jettySize=auto;html=1;entryX=0.5;entryY=0;entryDx=0;entryDy=0;entryPerimeter=0;startArrow=none;startFill=0;endArrow=open;endFill=0;strokeColor=#000000;" edge="1" parent="1" target="37">
                    <mxGeometry relative="1" as="geometry">
                        <mxPoint x="370" y="140" as="sourcePoint"/>
                    </mxGeometry>
                </mxCell>
                <mxCell id="39" value="Initiating&lt;br&gt;Event" style="text;html=1;strokeColor=none;fillColor=none;align=center;verticalAlign=middle;whiteSpace=wrap;rounded=0;fontStyle=1" vertex="1" parent="1">
                    <mxGeometry x="350" y="110" width="40" height="20" as="geometry"/>
                </mxCell>
            </root>
        </mxGraphModel>
    </diagram>
</mxfile>